<svg width="420" height="113" version="1.1" xmlns="http://www.w3.org/2000/svg" desc="Created with imagetracer.js version 1.2.6" ><path fill="rgb(235,239,235)" stroke="rgb(235,239,235)" stroke-width="1" opacity="1" d="M 25.5 9 L 24.5 11 L 25.5 9 Z " /><path fill="rgb(235,239,235)" stroke="rgb(235,239,235)" stroke-width="1" opacity="1" d="M 31.5 34 L 32 36.5 L 31 36.5 L 31.5 34 Z " /><path fill="rgb(235,239,235)" stroke="rgb(235,239,235)" stroke-width="1" opacity="1" d="M 105.5 35 L 109.5 40 L 105.5 35 Z " /><path fill="rgb(235,239,235)" stroke="rgb(235,239,235)" stroke-width="1" opacity="1" d="M 36 36 L 78 36.5 L 37 37 L 36.5 39 L 36 36 Z " /><path fill="rgb(235,239,235)" stroke="rgb(235,239,235)" stroke-width="1" opacity="1" d="M 13.5 41 L 14 44.5 L 13 44.5 L 13.5 41 Z " /><path fill="rgb(235,239,235)" stroke="rgb(235,239,235)" stroke-width="1" opacity="1" d="M 38.5 43 L 43 49.5 L 39 46.5 L 38.5 43 Z " /><path fill="rgb(235,239,235)" stroke="rgb(235,239,235)" stroke-width="1" opacity="1" d="M 112.5 43 L 113.5 45 L 112.5 43 Z " /><path fill="rgb(235,239,235)" stroke="rgb(235,239,235)" stroke-width="1" opacity="1" d="M 147.5 48 L 150.5 52 L 147.5 48 Z " /><path fill="rgb(235,239,235)" stroke="rgb(235,239,235)" stroke-width="1" opacity="1" d="M 295.5 48 L 296 71.5 L 295 71.5 L 295.5 48 Z " /><path fill="rgb(235,239,235)" stroke="rgb(235,239,235)" stroke-width="1" opacity="1" d="M 391.5 48 L 392 66.5 L 391 66.5 L 391.5 48 Z " /><path fill="rgb(235,239,235)" stroke="rgb(235,239,235)" stroke-width="1" opacity="1" d="M 289.5 49 L 287 52.5 L 287 67.5 L 290 70.5 L 286 67.5 L 286 52.5 L 289.5 49 Z " /><path fill="rgb(235,239,235)" stroke="rgb(235,239,235)" stroke-width="1" opacity="1" d="M 383.5 50 L 383 51.5 L 382.5 53 L 382 51.5 L 383.5 50 Z " /><path fill="rgb(235,239,235)" stroke="rgb(235,239,235)" stroke-width="1" opacity="1" d="M 46.5 51 L 49 51.5 L 46.5 52 L 46.5 51 Z " /><path fill="rgb(235,239,235)" stroke="rgb(235,239,235)" stroke-width="1" opacity="1" d="M 170.5 53 L 173 53.5 L 171 55.5 L 170.5 72 L 170.5 53 Z " /><path fill="rgb(235,239,235)" stroke="rgb(235,239,235)" stroke-width="1" opacity="1" d="M 209.5 53 Q 215.5 54.5 214 63.5 L 213 63.5 L 213 57.5 L 209.5 53 Z " /><path fill="rgb(235,239,235)" stroke="rgb(235,239,235)" stroke-width="1" opacity="1" d="M 232.5 53 L 233 56.5 L 232 56.5 L 232.5 53 Z " /><path fill="rgb(235,239,235)" stroke="rgb(235,239,235)" stroke-width="1" opacity="1" d="M 337.5 53 L 339.5 56 L 337.5 53 Z " /><path fill="rgb(235,239,235)" stroke="rgb(235,239,235)" stroke-width="1" opacity="1" d="M 351.5 53 L 352 71.5 L 351 71.5 L 351.5 53 Z " /><path fill="rgb(235,239,235)" stroke="rgb(235,239,235)" stroke-width="1" opacity="1" d="M 118.5 54 L 119 57.5 L 118 57.5 L 118.5 54 Z " /><path fill="rgb(235,239,235)" stroke="rgb(235,239,235)" stroke-width="1" opacity="1" d="M 180.5 54 L 182.5 57 L 180.5 54 Z " /><path fill="rgb(235,239,235)" stroke="rgb(235,239,235)" stroke-width="1" opacity="1" d="M 373.5 57 L 374 61.5 Q 372.3 64.8 365.5 63 L 365.5 62 L 373 62 L 373.5 57 Z " /><path fill="rgb(235,239,235)" stroke="rgb(235,239,235)" stroke-width="1" opacity="1" d="M 191.5 58 L 192 66.5 L 191 66.5 L 191.5 58 Z " /><path fill="rgb(235,239,235)" stroke="rgb(235,239,235)" stroke-width="1" opacity="1" d="M 236.5 58 L 237 60.5 L 236 60.5 L 236.5 58 Z " /><path fill="rgb(235,239,235)" stroke="rgb(235,239,235)" stroke-width="1" opacity="1" d="M 267.5 58 L 268 71.5 L 267 71.5 L 267.5 58 Z " /><path fill="rgb(235,239,235)" stroke="rgb(235,239,235)" stroke-width="1" opacity="1" d="M 382.5 58 L 383 67.5 L 387 71.5 L 382 67.5 L 382.5 58 Z " /><path fill="rgb(235,239,235)" stroke="rgb(235,239,235)" stroke-width="1" opacity="1" d="M 151.5 59 L 152 71.5 L 151 71.5 L 151.5 59 Z " /><path fill="rgb(235,239,235)" stroke="rgb(235,239,235)" stroke-width="1" opacity="1" d="M 232.5 61 L 233 63.5 L 232 63.5 L 232.5 61 Z " /><path fill="rgb(235,239,235)" stroke="rgb(235,239,235)" stroke-width="1" opacity="1" d="M 322.5 61 L 321.5 63 L 322.5 61 Z " /><path fill="rgb(235,239,235)" stroke="rgb(235,239,235)" stroke-width="1" opacity="1" d="M 36.5 62 L 68 62.5 L 36.5 63 L 36.5 62 Z " /><path fill="rgb(235,239,235)" stroke="rgb(235,239,235)" stroke-width="1" opacity="1" d="M 174.5 62 L 183 62.5 L 174.5 63 L 174.5 62 Z " /><path fill="rgb(235,239,235)" stroke="rgb(235,239,235)" stroke-width="1" opacity="1" d="M 302.5 63 L 310 63.5 L 302.5 64 L 302.5 63 Z " /><path fill="rgb(235,239,235)" stroke="rgb(235,239,235)" stroke-width="1" opacity="1" d="M 328.5 64 L 329 66.5 L 328 66.5 L 328.5 64 Z " /><path fill="rgb(235,239,235)" stroke="rgb(235,239,235)" stroke-width="1" opacity="1" d="M 223.5 67 L 227.5 72 L 223.5 67 Z " /><path fill="rgb(235,239,235)" stroke="rgb(235,239,235)" stroke-width="1" opacity="1" d="M 232.5 68 L 233 71.5 L 232 71.5 L 232.5 68 Z " /><path fill="rgb(235,239,235)" stroke="rgb(235,239,235)" stroke-width="1" opacity="1" d="M 13.5 69 L 14 71.5 L 13 71.5 L 13.5 69 Z " /><path fill="rgb(235,239,235)" stroke="rgb(235,239,235)" stroke-width="1" opacity="1" d="M 320.5 69 L 322.5 72 L 320.5 69 Z " /><path fill="rgb(235,239,235)" stroke="rgb(235,239,235)" stroke-width="1" opacity="1" d="M 243.5 70 L 242.5 72 L 243.5 70 Z " /><path fill="rgb(235,239,235)" stroke="rgb(235,239,235)" stroke-width="1" opacity="1" d="M 47.5 71 L 50 74.5 L 49 74.5 L 47.5 71 Z " /><path fill="rgb(235,239,235)" stroke="rgb(235,239,235)" stroke-width="1" opacity="1" d="M 75.5 71 L 76.5 73 L 75.5 71 Z " /><path fill="rgb(235,239,235)" stroke="rgb(235,239,235)" stroke-width="1" opacity="1" d="M 112.5 71 L 106.5 78 L 112.5 71 Z " /><path fill="rgb(235,239,235)" stroke="rgb(235,239,235)" stroke-width="1" opacity="1" d="M 72.5 74 L 73.5 76 L 72.5 74 Z " /><path fill="rgb(235,239,235)" stroke="rgb(235,239,235)" stroke-width="1" opacity="1" d="M 63.5 76 L 64 78.5 L 63 78.5 L 63.5 76 Z " /><path fill="rgb(235,239,235)" stroke="rgb(235,239,235)" stroke-width="1" opacity="1" d="M 102.5 80 L 101.5 82 L 102.5 80 Z " /><path fill="rgb(235,239,235)" stroke="rgb(235,239,235)" stroke-width="1" opacity="1" d="M 76.5 81 L 74.5 84 L 76.5 81 Z " /><path fill="rgb(235,239,235)" stroke="rgb(235,239,235)" stroke-width="1" opacity="1" d="M 47.5 82 L 46.5 84 L 47.5 82 Z " /><path fill="rgb(235,239,235)" stroke="rgb(235,239,235)" stroke-width="1" opacity="1" d="M 21.5 99 L 22.5 101 L 21.5 99 Z " /><path fill="rgb(235,239,235)" stroke="rgb(235,239,235)" stroke-width="1" opacity="1" d="M 23.5 102 L 25.5 105 L 23.5 102 Z " /><path fill="rgb(255,255,255)" stroke="rgb(255,255,255)" stroke-width="1" opacity="1" d="M 0 0 L 419.5 0 L 420 0.5 L 420 113 L 0.5 113 L 0 112.5 L 0 0 Z M 33 5 L 26 9 L 21 15 L 17 24 L 13 42 L 13 72 Q 16 73 14 79 L 18 94 L 23 103 L 30 107 Q 36 105 38 108 L 55 105 L 72 99 Q 91 91 107 78 Q 115 72 119 61 L 118 52 L 110 40 Q 93 22 70 12 L 47 5 L 33 5 Z M 132 48 L 127 53 L 127 68 L 132 72 L 152 72 L 152 59 L 139 59 L 139 64 Q 145 62 143 67 L 136 67 L 136 53 L 142 53 L 143 55 L 152 55 L 151 52 L 148 48 L 132 48 Z M 292 48 L 290 49 L 286 53 L 286 68 L 292 72 L 306 72 L 310 68 L 310 63 L 303 63 L 301 67 L 296 67 L 296 53 Q 304 51 301 58 L 310 58 L 310 53 L 306 48 L 292 48 Z M 390 48 L 384 50 L 381 54 L 382 68 L 387 72 L 397 72 Q 400 65 392 67 L 392 58 L 397 58 L 397 53 L 392 53 L 392 48 L 390 48 Z M 161 53 L 161 72 L 171 72 L 171 58 L 174 58 L 174 63 L 183 63 Q 185 55 180 53 Q 173 51 172 54 L 171 53 L 161 53 Z M 197 53 L 192 56 L 191 59 L 191 67 L 197 72 L 211 72 L 213 70 L 213 67 L 201 67 L 202 64 L 214 64 L 214 58 L 210 53 L 197 53 Z M 228 53 L 223 58 Q 220 69 228 72 L 243 72 L 244 71 L 244 67 L 234 67 L 232 68 L 233 64 L 245 64 L 245 58 L 241 53 L 228 53 Z M 255 53 L 255 72 L 264 72 L 264 58 L 267 59 L 267 72 L 277 72 L 277 58 Q 276 52 267 53 L 264 55 L 264 53 L 255 53 Z M 324 53 L 321 56 L 323 58 L 333 58 L 333 61 L 323 61 L 320 64 Q 319 71 323 72 Q 330 74 333 70 L 333 72 L 342 72 L 342 58 L 338 53 L 324 53 Z M 351 53 L 351 72 L 361 72 L 361 58 Q 366 56 364 62 Q 366 65 373 63 Q 375 62 374 58 Q 373 52 364 53 L 361 55 L 361 53 L 351 53 Z " /><path fill="rgb(255,255,255)" stroke="rgb(255,255,255)" stroke-width="1" opacity="1" d="M 80.5 28 L 83 29 L 79 57.5 L 73.5 65 L 67.5 67 L 36.5 67 L 34 66 L 35.5 63 L 67.5 63 L 75 57.5 L 74.5 56 L 47.5 56 Q 39.9 54.1 36 48.5 L 32 38.5 L 32 33.5 L 33.5 32 L 79 32 L 80.5 28 Z M 36 36 L 39 47 L 47 52 L 76 52 L 78 42 Q 79 36 78 36 L 36 36 Z " /><path fill="rgb(255,255,255)" stroke="rgb(255,255,255)" stroke-width="1" opacity="1" d="M 232.5 57 L 236 58 Q 237.6 62.9 232 61 L 232.5 57 Z " /><path fill="rgb(255,255,255)" stroke="rgb(255,255,255)" stroke-width="1" opacity="1" d="M 201 58 Q 206.6 56.1 205 61 Q 199.4 62.9 201 58 Z " /><path fill="rgb(255,255,255)" stroke="rgb(255,255,255)" stroke-width="1" opacity="1" d="M 329 64 Q 334.6 62.1 333 67 Q 327.4 68.9 329 64 Z " /><path fill="rgb(255,255,255)" stroke="rgb(255,255,255)" stroke-width="1" opacity="1" d="M 40.5 70 Q 47.4 69.1 49 73.5 L 50 79.5 L 49 82 L 45.5 84 L 40.5 84 L 37 81.5 L 36 74.5 L 38.5 71 L 40.5 70 Z M 42 74 L 40 76 Q 38 82 45 80 Q 47 79 46 76 Q 45 73 42 74 Z " /><path fill="rgb(255,255,255)" stroke="rgb(255,255,255)" stroke-width="1" opacity="1" d="M 68.5 70 Q 75.4 69.1 77 73.5 L 78 79.5 L 73.5 84 L 68.5 84 L 64 80.5 Q 62.8 73.3 66.5 71 L 68.5 70 Z M 70 74 L 68 77 L 68 79 Q 67 82 73 80 Q 75 79 74 76 Q 73 73 70 74 Z " /><path fill="rgb(96,96,96)" stroke="rgb(96,96,96)" stroke-width="1" opacity="1" d="M 291.5 48 L 287.5 53 L 291.5 48 Z " /><path fill="rgb(96,96,96)" stroke="rgb(96,96,96)" stroke-width="1" opacity="1" d="M 296.5 48 L 297 51.5 L 296 51.5 L 296.5 48 Z " /><path fill="rgb(96,96,96)" stroke="rgb(96,96,96)" stroke-width="1" opacity="1" d="M 390.5 49 L 391 66.5 L 390 66.5 L 390.5 49 Z " /><path fill="rgb(96,96,96)" stroke="rgb(96,96,96)" stroke-width="1" opacity="1" d="M 148.5 50 Q 151.5 50.5 151 54.5 L 150 54.5 L 148.5 50 Z " /><path fill="rgb(96,96,96)" stroke="rgb(96,96,96)" stroke-width="1" opacity="1" d="M 308.5 51 Q 311 52 310 56.5 Q 308.5 59.5 302.5 58 L 302.5 57 L 309 57 L 309 52.5 L 308.5 51 Z " /><path fill="rgb(96,96,96)" stroke="rgb(96,96,96)" stroke-width="1" opacity="1" d="M 169.5 53 L 170 71.5 L 169 71.5 L 169.5 53 Z " /><path fill="rgb(96,96,96)" stroke="rgb(96,96,96)" stroke-width="1" opacity="1" d="M 173.5 53 L 172 55.5 L 171.5 57 L 171 55.5 L 173.5 53 Z " /><path fill="rgb(96,96,96)" stroke="rgb(96,96,96)" stroke-width="1" opacity="1" d="M 208.5 53 L 210.5 56 L 208.5 53 Z " /><path fill="rgb(96,96,96)" stroke="rgb(96,96,96)" stroke-width="1" opacity="1" d="M 231.5 53 L 232 71.5 L 231 71.5 L 231.5 53 Z " /><path fill="rgb(96,96,96)" stroke="rgb(96,96,96)" stroke-width="1" opacity="1" d="M 255.5 53 L 256 71.5 L 255 71.5 L 255.5 53 Z " /><path fill="rgb(96,96,96)" stroke="rgb(96,96,96)" stroke-width="1" opacity="1" d="M 352.5 53 L 353 71.5 L 352 71.5 L 352.5 53 Z " /><path fill="rgb(96,96,96)" stroke="rgb(96,96,96)" stroke-width="1" opacity="1" d="M 381.5 53 L 382 56.5 L 381 56.5 L 381.5 53 Z " /><path fill="rgb(96,96,96)" stroke="rgb(96,96,96)" stroke-width="1" opacity="1" d="M 392.5 53 L 393 56.5 L 392 56.5 L 392.5 53 Z " /><path fill="rgb(96,96,96)" stroke="rgb(96,96,96)" stroke-width="1" opacity="1" d="M 195.5 54 L 193 57.5 L 192.5 67 L 192 57.5 L 195.5 54 Z " /><path fill="rgb(96,96,96)" stroke="rgb(96,96,96)" stroke-width="1" opacity="1" d="M 333.5 57 L 334 71.5 L 333 71.5 L 333.5 57 Z " /><path fill="rgb(96,96,96)" stroke="rgb(96,96,96)" stroke-width="1" opacity="1" d="M 372.5 57 L 373 61.5 L 372 61.5 L 372.5 57 Z " /><path fill="rgb(96,96,96)" stroke="rgb(96,96,96)" stroke-width="1" opacity="1" d="M 237.5 58 L 238 60.5 L 237 60.5 L 237.5 58 Z " /><path fill="rgb(96,96,96)" stroke="rgb(96,96,96)" stroke-width="1" opacity="1" d="M 268.5 58 L 269 71.5 L 268 71.5 L 268.5 58 Z " /><path fill="rgb(96,96,96)" stroke="rgb(96,96,96)" stroke-width="1" opacity="1" d="M 150.5 59 L 151 71.5 L 150 71.5 L 150.5 59 Z " /><path fill="rgb(96,96,96)" stroke="rgb(96,96,96)" stroke-width="1" opacity="1" d="M 309.5 64 L 310 67.5 L 308 68.5 L 309.5 64 Z " /><path fill="rgb(96,96,96)" stroke="rgb(96,96,96)" stroke-width="1" opacity="1" d="M 320.5 64 L 321 68.5 L 320 68.5 L 320.5 64 Z " /><path fill="rgb(96,96,96)" stroke="rgb(96,96,96)" stroke-width="1" opacity="1" d="M 287.5 67 L 291.5 72 L 287.5 67 Z " /><path fill="rgb(96,96,96)" stroke="rgb(96,96,96)" stroke-width="1" opacity="1" d="M 243.5 68 L 244 69.5 L 241 71.5 L 243.5 68 Z " /><path fill="rgb(96,96,96)" stroke="rgb(96,96,96)" stroke-width="1" opacity="1" d="M 296.5 68 L 297 71.5 L 296 71.5 L 296.5 68 Z " /><path fill="rgb(96,96,96)" stroke="rgb(96,96,96)" stroke-width="1" opacity="1" d="M 385.5 69 L 387.5 72 L 385.5 69 Z " /><path fill="rgb(96,96,96)" stroke="rgb(96,96,96)" stroke-width="1" opacity="1" d="M 322.5 70 L 323.5 72 L 322.5 70 Z " /><path fill="rgb(113,179,112)" stroke="rgb(113,179,112)" stroke-width="1" opacity="1" d="M 38.5 5 L 53.5 7 L 76.5 16 Q 96.4 26.1 111 41.5 Q 118.3 47.7 118 61.5 Q 113.2 72.2 104.5 79 Q 86.5 93.5 62.5 102 L 47.5 106 L 33.5 107 L 25 104 L 19 93.5 L 15 79.5 L 14 63.5 L 13 62.5 L 13 50.5 L 14 49.5 L 14 39.5 L 17 25.5 L 25.5 10 L 29.5 7 L 38.5 5 Z M 79 27 L 79 31 L 78 32 L 33 32 L 31 34 L 31 38 L 36 50 L 45 56 L 50 57 L 74 58 L 73 60 L 70 62 L 36 62 Q 33 63 34 67 L 71 67 L 75 65 Q 79 62 80 57 L 84 30 L 79 27 Z M 42 69 L 37 71 L 35 75 L 35 80 L 37 83 L 41 85 L 46 85 L 49 83 L 51 79 L 50 74 Q 48 69 42 69 Z M 70 69 L 66 71 L 63 75 L 64 82 L 69 85 Q 75 86 77 83 L 79 78 L 78 74 Q 76 69 70 69 Z " /><path fill="rgb(113,179,112)" stroke="rgb(113,179,112)" stroke-width="1" opacity="1" d="M 37 37 L 76.5 37 Q 77.6 37.1 77 42.5 L 75 51 L 46.5 51 L 40 46.5 L 37 37 Z " /><path fill="rgb(113,179,112)" stroke="rgb(113,179,112)" stroke-width="1" opacity="1" d="M 135.5 48 L 136 66.5 L 135 66.5 L 135.5 48 Z " /><path fill="rgb(113,179,112)" stroke="rgb(113,179,112)" stroke-width="1" opacity="1" d="M 127.5 53 L 128 66.5 L 127 66.5 L 127.5 53 Z " /><path fill="rgb(113,179,112)" stroke="rgb(113,179,112)" stroke-width="1" opacity="1" d="M 201.5 53 L 202 56.5 L 201 56.5 L 201.5 53 Z " /><path fill="rgb(113,179,112)" stroke="rgb(113,179,112)" stroke-width="1" opacity="1" d="M 263.5 53 L 264 71.5 L 263 71.5 L 263.5 53 Z " /><path fill="rgb(113,179,112)" stroke="rgb(113,179,112)" stroke-width="1" opacity="1" d="M 396.5 53 L 397 56.5 L 396 56.5 L 396.5 53 Z " /><path fill="rgb(113,179,112)" stroke="rgb(113,179,112)" stroke-width="1" opacity="1" d="M 273.5 54 L 274.5 56 L 273.5 54 Z " /><path fill="rgb(113,179,112)" stroke="rgb(113,179,112)" stroke-width="1" opacity="1" d="M 182.5 57 L 183 61.5 L 182 61.5 L 182.5 57 Z " /><path fill="rgb(113,179,112)" stroke="rgb(113,179,112)" stroke-width="1" opacity="1" d="M 174.5 58 L 175 61.5 L 174 61.5 L 174.5 58 Z " /><path fill="rgb(113,179,112)" stroke="rgb(113,179,112)" stroke-width="1" opacity="1" d="M 244.5 58 L 245 63.5 L 244 63.5 L 244.5 58 Z " /><path fill="rgb(113,179,112)" stroke="rgb(113,179,112)" stroke-width="1" opacity="1" d="M 201.5 61 L 202 63.5 L 201 63.5 L 201.5 61 Z " /><path fill="rgb(113,179,112)" stroke="rgb(113,179,112)" stroke-width="1" opacity="1" d="M 192.5 67 L 196.5 72 L 192.5 67 Z " /><path fill="rgb(113,179,112)" stroke="rgb(113,179,112)" stroke-width="1" opacity="1" d="M 201.5 68 L 202 71.5 L 201 71.5 L 201.5 68 Z " /><path fill="rgb(113,179,112)" stroke="rgb(113,179,112)" stroke-width="1" opacity="1" d="M 41.5 75 Q 46.8 73.3 45 78.5 L 42.5 80 L 40 76.5 L 41.5 75 Z " /><path fill="rgb(113,179,112)" stroke="rgb(113,179,112)" stroke-width="1" opacity="1" d="M 69.5 75 Q 74.8 73.3 73 78.5 L 70.5 80 L 68 76.5 L 69.5 75 Z " /><path fill="rgb(5,5,5)" stroke="rgb(5,5,5)" stroke-width="1" opacity="1" d="M 132.5 48 L 135 48.5 L 135 68 L 142 68 L 142 72 L 132.5 72 L 128 67.5 L 128 52.5 L 132.5 48 Z " /><path fill="rgb(5,5,5)" stroke="rgb(5,5,5)" stroke-width="1" opacity="1" d="M 137 48 L 146.5 48 L 148 49.5 L 150 55 L 143.5 55 L 143 52 L 137 52 L 137 48 Z " /><path fill="rgb(5,5,5)" stroke="rgb(5,5,5)" stroke-width="1" opacity="1" d="M 292.5 48 L 295 48.5 L 295 72 L 292.5 72 L 287 66.5 L 287 53.5 L 292.5 48 Z " /><path fill="rgb(5,5,5)" stroke="rgb(5,5,5)" stroke-width="1" opacity="1" d="M 297 48 Q 306.7 46 309 52.5 L 309 57 L 302 57 L 302 52 Q 294.9 54.4 297 48 Z " /><path fill="rgb(5,5,5)" stroke="rgb(5,5,5)" stroke-width="1" opacity="1" d="M 388.5 49 L 390 49.5 L 390 66.5 Q 391.4 69.3 396 68 L 396 72 L 388.5 72 L 383 67.5 L 382 53.5 L 383 51 L 388.5 49 Z " /><path fill="rgb(5,5,5)" stroke="rgb(5,5,5)" stroke-width="1" opacity="1" d="M 162 53 L 169 53 L 169 72 L 162 72 L 162 53 Z " /><path fill="rgb(5,5,5)" stroke="rgb(5,5,5)" stroke-width="1" opacity="1" d="M 174.5 53 Q 180 52 181 55.5 L 182 62 L 175 62 L 175 57 Q 171.3 58.5 172 55.5 L 174.5 53 Z " /><path fill="rgb(5,5,5)" stroke="rgb(5,5,5)" stroke-width="1" opacity="1" d="M 197.5 53 L 200 53.5 L 200 72 L 197.5 72 L 193 67.5 Q 190.5 55.5 197.5 53 Z " /><path fill="rgb(5,5,5)" stroke="rgb(5,5,5)" stroke-width="1" opacity="1" d="M 202 53 L 207.5 53 L 213 57.5 L 213 64 L 202 64 Q 200.4 59.1 206 61 L 206 57 Q 200 59 202 53 Z " /><path fill="rgb(5,5,5)" stroke="rgb(5,5,5)" stroke-width="1" opacity="1" d="M 228.5 53 L 231 53.5 L 231 72 L 228.5 72 L 224 67.5 Q 221.5 55.5 228.5 53 Z " /><path fill="rgb(5,5,5)" stroke="rgb(5,5,5)" stroke-width="1" opacity="1" d="M 233 53 Q 241.9 51.3 244 57.5 L 244 64 L 233 64 L 233 61 L 238 61 L 238 58.5 Q 236.8 56 233 57 L 233 53 Z " /><path fill="rgb(5,5,5)" stroke="rgb(5,5,5)" stroke-width="1" opacity="1" d="M 256 53 L 263 53 L 263 72 L 256 72 L 256 53 Z " /><path fill="rgb(5,5,5)" stroke="rgb(5,5,5)" stroke-width="1" opacity="1" d="M 267.5 53 L 271.5 53 L 276 57.5 L 276 72 L 269 72 L 269 58.5 L 267.5 57 Q 264.2 58.1 265 55.5 L 267.5 53 Z " /><path fill="rgb(5,5,5)" stroke="rgb(5,5,5)" stroke-width="1" opacity="1" d="M 324.5 53 Q 337.5 50.5 341 57.5 L 341 72 L 334 72 L 334 57 L 322.5 57 L 322 55.5 L 324.5 53 Z " /><path fill="rgb(5,5,5)" stroke="rgb(5,5,5)" stroke-width="1" opacity="1" d="M 353 53 L 360 53 L 360 72 L 353 72 L 353 53 Z " /><path fill="rgb(5,5,5)" stroke="rgb(5,5,5)" stroke-width="1" opacity="1" d="M 364.5 53 Q 371 52 372 56.5 L 372 62 L 365 62 L 365 57 Q 361.2 58.5 362 55.5 L 364.5 53 Z " /><path fill="rgb(5,5,5)" stroke="rgb(5,5,5)" stroke-width="1" opacity="1" d="M 393 53 Q 397.9 51.4 396 57 Q 391.1 58.6 393 53 Z " /><path fill="rgb(5,5,5)" stroke="rgb(5,5,5)" stroke-width="1" opacity="1" d="M 140 59 L 150 59 L 150 72 L 144 72 L 144 63.5 L 140 63 L 140 59 Z " /><path fill="rgb(5,5,5)" stroke="rgb(5,5,5)" stroke-width="1" opacity="1" d="M 324.5 61 L 332 61 L 332 64 Q 326 62 328 68 L 332 68 L 332 69.5 Q 330.8 73.3 324.5 72 L 321 70 L 321 63.5 L 322.5 62 L 324.5 61 Z " /><path fill="rgb(5,5,5)" stroke="rgb(5,5,5)" stroke-width="1" opacity="1" d="M 302 64 L 309 64 L 309 67.5 Q 306.7 74 297 72 L 297 68 Q 304.1 70.4 302 64 Z " /><path fill="rgb(5,5,5)" stroke="rgb(5,5,5)" stroke-width="1" opacity="1" d="M 202 68 L 211.5 68 L 212 69.5 L 209.5 72 L 202 72 L 202 68 Z " /><path fill="rgb(5,5,5)" stroke="rgb(5,5,5)" stroke-width="1" opacity="1" d="M 233 68 L 242.5 68 L 243 69.5 L 240.5 72 L 233 72 L 233 68 Z " /><path fill="rgb(173,192,173)" stroke="rgb(173,192,173)" stroke-width="1" opacity="1" d="M 34.5 5 L 38 5.5 L 34.5 6 L 34.5 5 Z " /><path fill="rgb(173,192,173)" stroke="rgb(173,192,173)" stroke-width="1" opacity="1" d="M 41.5 5 L 45 5.5 L 41.5 6 L 41.5 5 Z " /><path fill="rgb(173,192,173)" stroke="rgb(173,192,173)" stroke-width="1" opacity="1" d="M 28.5 7 L 26.5 10 L 28.5 7 Z " /><path fill="rgb(173,192,173)" stroke="rgb(173,192,173)" stroke-width="1" opacity="1" d="M 23.5 12 L 22.5 14 L 23.5 12 Z " /><path fill="rgb(173,192,173)" stroke="rgb(173,192,173)" stroke-width="1" opacity="1" d="M 89.5 23 L 90.5 25 L 89.5 23 Z " /><path fill="rgb(173,192,173)" stroke="rgb(173,192,173)" stroke-width="1" opacity="1" d="M 92.5 25 L 93.5 27 L 92.5 25 Z " /><path fill="rgb(173,192,173)" stroke="rgb(173,192,173)" stroke-width="1" opacity="1" d="M 79 27 L 81 27.5 L 79 28.5 L 79 27 Z " /><path fill="rgb(173,192,173)" stroke="rgb(173,192,173)" stroke-width="1" opacity="1" d="M 82.5 28 L 83.5 30 L 82.5 28 Z " /><path fill="rgb(173,192,173)" stroke="rgb(173,192,173)" stroke-width="1" opacity="1" d="M 96.5 28 L 97.5 30 L 96.5 28 Z " /><path fill="rgb(173,192,173)" stroke="rgb(173,192,173)" stroke-width="1" opacity="1" d="M 100.5 31 L 102.5 34 L 100.5 31 Z " /><path fill="rgb(173,192,173)" stroke="rgb(173,192,173)" stroke-width="1" opacity="1" d="M 32.5 32 L 31.5 34 L 32.5 32 Z " /><path fill="rgb(173,192,173)" stroke="rgb(173,192,173)" stroke-width="1" opacity="1" d="M 77.5 37 L 78 39.5 L 77 39.5 L 77.5 37 Z " /><path fill="rgb(173,192,173)" stroke="rgb(173,192,173)" stroke-width="1" opacity="1" d="M 76.5 43 L 77 45.5 L 76 45.5 L 76.5 43 Z " /><path fill="rgb(173,192,173)" stroke="rgb(173,192,173)" stroke-width="1" opacity="1" d="M 13.5 45 L 14 49.5 L 13 49.5 L 13.5 45 Z " /><path fill="rgb(173,192,173)" stroke="rgb(173,192,173)" stroke-width="1" opacity="1" d="M 131.5 48 L 127.5 53 L 131.5 48 Z " /><path fill="rgb(173,192,173)" stroke="rgb(173,192,173)" stroke-width="1" opacity="1" d="M 136.5 48 L 137 52 Q 141.6 50.8 143 53.5 L 141.5 53 Q 137 54 136 51.5 L 136.5 48 Z " /><path fill="rgb(173,192,173)" stroke="rgb(173,192,173)" stroke-width="1" opacity="1" d="M 305.5 48 L 306.5 50 L 305.5 48 Z " /><path fill="rgb(173,192,173)" stroke="rgb(173,192,173)" stroke-width="1" opacity="1" d="M 36.5 49 L 40.5 54 L 36.5 49 Z " /><path fill="rgb(173,192,173)" stroke="rgb(173,192,173)" stroke-width="1" opacity="1" d="M 75.5 49 L 76 50.5 L 74.5 52 L 49.5 52 L 49.5 51 L 74.5 51 L 75.5 49 Z " /><path fill="rgb(173,192,173)" stroke="rgb(173,192,173)" stroke-width="1" opacity="1" d="M 296.5 52 Q 301 51 302 53.5 L 301.5 58 L 301 53 L 296.5 53 L 296.5 52 Z " /><path fill="rgb(173,192,173)" stroke="rgb(173,192,173)" stroke-width="1" opacity="1" d="M 161.5 53 L 162 71.5 L 161 71.5 L 161.5 53 Z " /><path fill="rgb(173,192,173)" stroke="rgb(173,192,173)" stroke-width="1" opacity="1" d="M 200.5 53 L 201 71.5 L 200 71.5 L 200.5 53 Z " /><path fill="rgb(173,192,173)" stroke="rgb(173,192,173)" stroke-width="1" opacity="1" d="M 240.5 53 L 242.5 56 L 240.5 53 Z " /><path fill="rgb(173,192,173)" stroke="rgb(173,192,173)" stroke-width="1" opacity="1" d="M 266.5 53 L 265 55.5 Q 264.2 58.1 267.5 57 L 267.5 58 L 264 56.5 L 266.5 53 Z " /><path fill="rgb(173,192,173)" stroke="rgb(173,192,173)" stroke-width="1" opacity="1" d="M 323.5 53 L 322.5 55 L 323.5 53 Z " /><path fill="rgb(173,192,173)" stroke="rgb(173,192,173)" stroke-width="1" opacity="1" d="M 360.5 53 L 361.5 55 L 364 53.5 L 361 56.5 L 360.5 72 L 360.5 53 Z " /><path fill="rgb(173,192,173)" stroke="rgb(173,192,173)" stroke-width="1" opacity="1" d="M 226.5 54 L 224 57.5 L 223.5 67 L 223 57.5 L 226.5 54 Z " /><path fill="rgb(173,192,173)" stroke="rgb(173,192,173)" stroke-width="1" opacity="1" d="M 370.5 54 L 372.5 57 L 370.5 54 Z " /><path fill="rgb(173,192,173)" stroke="rgb(173,192,173)" stroke-width="1" opacity="1" d="M 49.5 56 L 74 56.5 L 49.5 57 L 49.5 56 Z " /><path fill="rgb(173,192,173)" stroke="rgb(173,192,173)" stroke-width="1" opacity="1" d="M 171.5 57 L 174 57.5 L 171.5 58 L 171.5 57 Z " /><path fill="rgb(173,192,173)" stroke="rgb(173,192,173)" stroke-width="1" opacity="1" d="M 202.5 57 L 206 58.5 L 205.5 61 L 205 58 Q 201.7 58.8 202.5 57 Z " /><path fill="rgb(173,192,173)" stroke="rgb(173,192,173)" stroke-width="1" opacity="1" d="M 233.5 57 L 237 57.5 L 233.5 58 L 233.5 57 Z " /><path fill="rgb(173,192,173)" stroke="rgb(173,192,173)" stroke-width="1" opacity="1" d="M 276.5 57 L 277 71.5 L 276 71.5 L 276.5 57 Z " /><path fill="rgb(173,192,173)" stroke="rgb(173,192,173)" stroke-width="1" opacity="1" d="M 322.5 57 L 333 57.5 L 322.5 58 L 322.5 57 Z " /><path fill="rgb(173,192,173)" stroke="rgb(173,192,173)" stroke-width="1" opacity="1" d="M 362.5 57 L 365 58.5 L 364.5 62 L 364 58 L 362.5 57 Z " /><path fill="rgb(173,192,173)" stroke="rgb(173,192,173)" stroke-width="1" opacity="1" d="M 392.5 57 L 396 57.5 L 392.5 58 L 392.5 57 Z " /><path fill="rgb(173,192,173)" stroke="rgb(173,192,173)" stroke-width="1" opacity="1" d="M 341.5 58 L 342 71.5 L 341 71.5 L 341.5 58 Z " /><path fill="rgb(173,192,173)" stroke="rgb(173,192,173)" stroke-width="1" opacity="1" d="M 139.5 59 L 140 63 L 144 64.5 L 144 71.5 L 142 72 Q 144.3 65.6 136.5 68 L 136.5 67 Q 141.3 65.8 142.5 68 L 143 64 L 139 62.5 L 139.5 59 Z " /><path fill="rgb(173,192,173)" stroke="rgb(173,192,173)" stroke-width="1" opacity="1" d="M 77.5 61 L 76.5 63 L 77.5 61 Z " /><path fill="rgb(173,192,173)" stroke="rgb(173,192,173)" stroke-width="1" opacity="1" d="M 332.5 61 L 333 63.5 L 332 63.5 L 332.5 61 Z " /><path fill="rgb(173,192,173)" stroke="rgb(173,192,173)" stroke-width="1" opacity="1" d="M 13.5 63 L 14 68.5 L 13 68.5 L 13.5 63 Z " /><path fill="rgb(173,192,173)" stroke="rgb(173,192,173)" stroke-width="1" opacity="1" d="M 301.5 64 L 302 66.5 Q 301 69 296.5 68 L 296.5 67 Q 302.5 68.9 301.5 64 Z " /><path fill="rgb(173,192,173)" stroke="rgb(173,192,173)" stroke-width="1" opacity="1" d="M 127.5 67 L 131.5 72 L 127.5 67 Z " /><path fill="rgb(173,192,173)" stroke="rgb(173,192,173)" stroke-width="1" opacity="1" d="M 202.5 67 L 211.5 67 L 213 68.5 L 211.5 68 L 202.5 68 L 202.5 67 Z " /><path fill="rgb(173,192,173)" stroke="rgb(173,192,173)" stroke-width="1" opacity="1" d="M 233.5 67 L 244 67.5 L 233.5 68 L 233.5 67 Z " /><path fill="rgb(173,192,173)" stroke="rgb(173,192,173)" stroke-width="1" opacity="1" d="M 328.5 67 Q 332.3 66.3 333 68.5 L 331.5 68 Q 327.5 68.8 328.5 67 Z " /><path fill="rgb(173,192,173)" stroke="rgb(173,192,173)" stroke-width="1" opacity="1" d="M 391.5 67 Q 396 66 397 68.5 L 396.5 72 L 396 68 L 391.5 68 L 391.5 67 Z " /><path fill="rgb(173,192,173)" stroke="rgb(173,192,173)" stroke-width="1" opacity="1" d="M 114.5 68 L 112.5 71 L 114.5 68 Z " /><path fill="rgb(173,192,173)" stroke="rgb(173,192,173)" stroke-width="1" opacity="1" d="M 41.5 69 L 45 69.5 L 41.5 70 L 41.5 69 Z " /><path fill="rgb(173,192,173)" stroke="rgb(173,192,173)" stroke-width="1" opacity="1" d="M 69.5 69 L 73 69.5 L 69.5 70 L 69.5 69 Z " /><path fill="rgb(173,192,173)" stroke="rgb(173,192,173)" stroke-width="1" opacity="1" d="M 211.5 70 L 210.5 72 L 211.5 70 Z " /><path fill="rgb(173,192,173)" stroke="rgb(173,192,173)" stroke-width="1" opacity="1" d="M 306.5 70 L 305.5 72 L 306.5 70 Z " /><path fill="rgb(173,192,173)" stroke="rgb(173,192,173)" stroke-width="1" opacity="1" d="M 331.5 70 L 330.5 72 L 331.5 70 Z " /><path fill="rgb(173,192,173)" stroke="rgb(173,192,173)" stroke-width="1" opacity="1" d="M 65.5 71 L 64.5 73 L 65.5 71 Z " /><path fill="rgb(173,192,173)" stroke="rgb(173,192,173)" stroke-width="1" opacity="1" d="M 14.5 74 L 15 76.5 L 14 76.5 L 14.5 74 Z " /><path fill="rgb(173,192,173)" stroke="rgb(173,192,173)" stroke-width="1" opacity="1" d="M 35.5 74 L 36 76.5 L 35 76.5 L 35.5 74 Z " /><path fill="rgb(173,192,173)" stroke="rgb(173,192,173)" stroke-width="1" opacity="1" d="M 41.5 74 L 45 74.5 L 40.5 76 L 41.5 74 Z " /><path fill="rgb(173,192,173)" stroke="rgb(173,192,173)" stroke-width="1" opacity="1" d="M 69.5 74 L 72 74.5 L 68.5 76 L 69.5 74 Z " /><path fill="rgb(173,192,173)" stroke="rgb(173,192,173)" stroke-width="1" opacity="1" d="M 50.5 75 L 51 78.5 L 50 78.5 L 50.5 75 Z " /><path fill="rgb(173,192,173)" stroke="rgb(173,192,173)" stroke-width="1" opacity="1" d="M 45.5 76 L 46 78.5 L 44 79.5 L 45.5 76 Z " /><path fill="rgb(173,192,173)" stroke="rgb(173,192,173)" stroke-width="1" opacity="1" d="M 40.5 78 L 41.5 80 L 40.5 78 Z " /><path fill="rgb(173,192,173)" stroke="rgb(173,192,173)" stroke-width="1" opacity="1" d="M 68.5 78 L 69.5 80 L 68.5 78 Z " /><path fill="rgb(173,192,173)" stroke="rgb(173,192,173)" stroke-width="1" opacity="1" d="M 64.5 81 L 66.5 84 L 64.5 81 Z " /><path fill="rgb(173,192,173)" stroke="rgb(173,192,173)" stroke-width="1" opacity="1" d="M 99.5 82 L 98.5 84 L 99.5 82 Z " /><path fill="rgb(173,192,173)" stroke="rgb(173,192,173)" stroke-width="1" opacity="1" d="M 96.5 84 L 95.5 86 L 96.5 84 Z " /><path fill="rgb(173,192,173)" stroke="rgb(173,192,173)" stroke-width="1" opacity="1" d="M 93.5 86 L 92.5 88 L 93.5 86 Z " /><path fill="rgb(173,192,173)" stroke="rgb(173,192,173)" stroke-width="1" opacity="1" d="M 23.5 101 L 24.5 103 L 23.5 101 Z " /><path fill="rgb(173,192,173)" stroke="rgb(173,192,173)" stroke-width="1" opacity="1" d="M 42.5 106 L 45 106.5 L 42.5 107 L 42.5 106 Z " /></svg>