<svg width="119" height="112" version="1.1" xmlns="http://www.w3.org/2000/svg" desc="Created with imagetracer.js version 1.2.6" ><path fill="rgb(113,179,112)" stroke="rgb(113,179,112)" stroke-width="1" opacity="1" d="M 36.5 10 L 53.5 12 L 74.5 20 Q 95.7 30.3 111 46.5 L 117 55.5 L 118 66.5 Q 113.8 77.8 104.5 84 Q 86.5 98.5 62.5 107 L 48.5 111 L 32.5 112 L 28.5 111 L 24 107.5 L 20 101.5 L 15 85.5 L 14 70.5 L 13 69.5 L 13 53.5 L 14 52.5 L 15 38.5 L 19 24.5 L 27.5 13 L 36.5 10 Z M 81 32 L 79 36 L 78 37 L 33 37 L 31 39 L 31 43 L 36 55 L 45 61 L 74 63 L 73 65 L 70 67 L 36 67 Q 33 68 34 72 L 71 72 L 75 70 Q 79 67 80 62 L 84 35 L 81 32 Z M 43 74 L 35 80 Q 34 86 37 88 L 42 90 L 49 88 L 51 84 L 50 79 Q 48 74 43 74 Z M 71 74 L 65 76 L 63 80 L 64 87 L 70 90 L 77 88 L 79 83 L 78 79 Q 76 74 71 74 Z " /><path fill="rgb(113,179,112)" stroke="rgb(113,179,112)" stroke-width="1" opacity="1" d="M 37 42 L 76.5 42 Q 77.6 42.1 77 47.5 L 75 56 L 46.5 56 L 40 51.5 L 37 42 Z " /><path fill="rgb(113,179,112)" stroke="rgb(113,179,112)" stroke-width="1" opacity="1" d="M 42.5 79 L 46 81.5 L 43.5 85 L 40 82.5 L 42.5 79 Z " /><path fill="rgb(113,179,112)" stroke="rgb(113,179,112)" stroke-width="1" opacity="1" d="M 70.5 79 L 73 80 Q 74 83.8 71.5 85 L 68 82.5 L 70.5 79 Z " /><path fill="rgb(245,249,245)" stroke="rgb(245,249,245)" stroke-width="1" opacity="1" d="M 25.5 14 L 24.5 16 L 25.5 14 Z " /><path fill="rgb(245,249,245)" stroke="rgb(245,249,245)" stroke-width="1" opacity="1" d="M 105.5 40 L 109.5 45 L 105.5 40 Z " /><path fill="rgb(245,249,245)" stroke="rgb(245,249,245)" stroke-width="1" opacity="1" d="M 77.5 45 L 78 47.5 L 77 47.5 L 77.5 45 Z " /><path fill="rgb(245,249,245)" stroke="rgb(245,249,245)" stroke-width="1" opacity="1" d="M 39.5 51 L 42.5 55 L 39.5 51 Z " /><path fill="rgb(245,249,245)" stroke="rgb(245,249,245)" stroke-width="1" opacity="1" d="M 73.5 64 L 72.5 66 L 73.5 64 Z " /><path fill="rgb(245,249,245)" stroke="rgb(245,249,245)" stroke-width="1" opacity="1" d="M 34.5 69 L 36 71.5 L 34 70.5 L 34.5 69 Z " /><path fill="rgb(245,249,245)" stroke="rgb(245,249,245)" stroke-width="1" opacity="1" d="M 13.5 74 L 14 76.5 L 13 76.5 L 13.5 74 Z " /><path fill="rgb(245,249,245)" stroke="rgb(245,249,245)" stroke-width="1" opacity="1" d="M 47.5 76 L 48.5 78 L 47.5 76 Z " /><path fill="rgb(245,249,245)" stroke="rgb(245,249,245)" stroke-width="1" opacity="1" d="M 75.5 76 L 76.5 78 L 75.5 76 Z " /><path fill="rgb(245,249,245)" stroke="rgb(245,249,245)" stroke-width="1" opacity="1" d="M 112.5 76 L 106.5 83 L 112.5 76 Z " /><path fill="rgb(245,249,245)" stroke="rgb(245,249,245)" stroke-width="1" opacity="1" d="M 76.5 86 L 75.5 88 L 76.5 86 Z " /><path fill="rgb(245,249,245)" stroke="rgb(245,249,245)" stroke-width="1" opacity="1" d="M 47.5 87 L 46.5 89 L 47.5 87 Z " /><path fill="rgb(245,249,245)" stroke="rgb(245,249,245)" stroke-width="1" opacity="1" d="M 23.5 107 L 25.5 110 L 23.5 107 Z " /><path fill="rgb(255,255,255)" stroke="rgb(255,255,255)" stroke-width="1" opacity="1" d="M 0 0 L 119 0 L 119 58.5 L 118 58.5 Q 114.3 46.7 105.5 40 Q 89.8 26.2 69.5 17 L 46.5 10 L 32.5 10 L 24 15.5 L 19 23.5 L 14 40.5 Q 15.3 45.3 13 46.5 L 13 76.5 L 18 98.5 L 25.5 110 L 29 111.5 L 0 112 L 0 0 Z " /><path fill="rgb(255,255,255)" stroke="rgb(255,255,255)" stroke-width="1" opacity="1" d="M 80.5 33 L 83 34 L 79 62.5 L 73.5 70 L 67.5 72 L 36.5 72 L 35 68 L 67.5 68 L 74 64.5 L 75 61 L 47.5 61 Q 40.5 59.4 37 54.5 L 32 42.5 L 32 38.5 L 33.5 37 L 78.5 37 L 80 35.5 L 80.5 33 Z M 36 41 L 39 52 L 47 57 L 76 57 L 78 48 Q 79 41 78 41 L 36 41 Z " /><path fill="rgb(255,255,255)" stroke="rgb(255,255,255)" stroke-width="1" opacity="1" d="M 118.5 66 L 119 112 L 46 111.5 Q 87.9 102.4 113 76.5 L 118.5 66 Z " /><path fill="rgb(255,255,255)" stroke="rgb(255,255,255)" stroke-width="1" opacity="1" d="M 40.5 75 Q 47.4 74.1 49 78.5 L 50 84.5 L 49 87 L 45.5 89 L 40.5 89 L 38 88 L 36 84.5 L 36 79.5 L 38 76 L 40.5 75 Z M 42 79 L 40 81 Q 38 87 45 85 Q 47 84 46 81 Q 45 78 42 79 Z " /><path fill="rgb(255,255,255)" stroke="rgb(255,255,255)" stroke-width="1" opacity="1" d="M 68.5 75 Q 75.4 74.1 77 78.5 L 78 84.5 L 73.5 89 L 68.5 89 L 65 86.5 L 64 79.5 L 66.5 76 L 68.5 75 Z M 70 79 L 68 82 L 68 84 Q 67 87 73 85 Q 75 84 74 81 Q 73 78 70 79 Z " /><path fill="rgb(188,219,188)" stroke="rgb(188,219,188)" stroke-width="1" opacity="1" d="M 33.5 10 L 36 10.5 L 33.5 11 L 33.5 10 Z " /><path fill="rgb(188,219,188)" stroke="rgb(188,219,188)" stroke-width="1" opacity="1" d="M 42.5 10 L 46 10.5 L 42.5 11 L 42.5 10 Z " /><path fill="rgb(188,219,188)" stroke="rgb(188,219,188)" stroke-width="1" opacity="1" d="M 89.5 28 L 90.5 30 L 89.5 28 Z " /><path fill="rgb(188,219,188)" stroke="rgb(188,219,188)" stroke-width="1" opacity="1" d="M 92.5 30 L 93.5 32 L 92.5 30 Z " /><path fill="rgb(188,219,188)" stroke="rgb(188,219,188)" stroke-width="1" opacity="1" d="M 16.5 31 L 17 33.5 L 16 33.5 L 16.5 31 Z " /><path fill="rgb(188,219,188)" stroke="rgb(188,219,188)" stroke-width="1" opacity="1" d="M 80.5 32 L 79.5 34 L 80.5 32 Z " /><path fill="rgb(188,219,188)" stroke="rgb(188,219,188)" stroke-width="1" opacity="1" d="M 82.5 33 Q 84.8 33.8 84 37.5 L 83 37.5 L 82.5 33 Z " /><path fill="rgb(188,219,188)" stroke="rgb(188,219,188)" stroke-width="1" opacity="1" d="M 96.5 33 L 97.5 35 L 96.5 33 Z " /><path fill="rgb(188,219,188)" stroke="rgb(188,219,188)" stroke-width="1" opacity="1" d="M 15.5 35 L 16 37.5 L 15 37.5 L 15.5 35 Z " /><path fill="rgb(188,219,188)" stroke="rgb(188,219,188)" stroke-width="1" opacity="1" d="M 100.5 36 L 102.5 39 L 100.5 36 Z " /><path fill="rgb(188,219,188)" stroke="rgb(188,219,188)" stroke-width="1" opacity="1" d="M 32.5 37 L 31.5 39 L 32.5 37 Z " /><path fill="rgb(188,219,188)" stroke="rgb(188,219,188)" stroke-width="1" opacity="1" d="M 37.5 41 L 77.5 41 L 78 44.5 L 77 44.5 L 76.5 42 L 37.5 42 L 36 42.5 L 37.5 41 Z " /><path fill="rgb(188,219,188)" stroke="rgb(188,219,188)" stroke-width="1" opacity="1" d="M 82.5 41 L 83 43.5 L 82 43.5 L 82.5 41 Z " /><path fill="rgb(188,219,188)" stroke="rgb(188,219,188)" stroke-width="1" opacity="1" d="M 81.5 47 L 82 49.5 L 81 49.5 L 81.5 47 Z " /><path fill="rgb(188,219,188)" stroke="rgb(188,219,188)" stroke-width="1" opacity="1" d="M 111.5 47 L 112.5 49 L 111.5 47 Z " /><path fill="rgb(188,219,188)" stroke="rgb(188,219,188)" stroke-width="1" opacity="1" d="M 13.5 48 L 14 52.5 L 13 52.5 L 13.5 48 Z " /><path fill="rgb(188,219,188)" stroke="rgb(188,219,188)" stroke-width="1" opacity="1" d="M 76.5 48 L 77 51.5 L 76 51.5 L 76.5 48 Z " /><path fill="rgb(188,219,188)" stroke="rgb(188,219,188)" stroke-width="1" opacity="1" d="M 80.5 53 L 81 55.5 L 80 55.5 L 80.5 53 Z " /><path fill="rgb(188,219,188)" stroke="rgb(188,219,188)" stroke-width="1" opacity="1" d="M 36.5 54 L 40.5 59 L 36.5 54 Z " /><path fill="rgb(188,219,188)" stroke="rgb(188,219,188)" stroke-width="1" opacity="1" d="M 75.5 54 L 76 55.5 L 74.5 57 L 48.5 57 L 48.5 56 L 74.5 56 L 75.5 54 Z " /><path fill="rgb(188,219,188)" stroke="rgb(188,219,188)" stroke-width="1" opacity="1" d="M 79.5 59 L 80 61.5 L 79 61.5 L 79.5 59 Z " /><path fill="rgb(188,219,188)" stroke="rgb(188,219,188)" stroke-width="1" opacity="1" d="M 50.5 61 L 75 61.5 L 50.5 62 L 50.5 61 Z " /><path fill="rgb(188,219,188)" stroke="rgb(188,219,188)" stroke-width="1" opacity="1" d="M 118.5 61 L 119 64.5 L 118 64.5 L 118.5 61 Z " /><path fill="rgb(188,219,188)" stroke="rgb(188,219,188)" stroke-width="1" opacity="1" d="M 77.5 66 L 76.5 68 L 77.5 66 Z " /><path fill="rgb(188,219,188)" stroke="rgb(188,219,188)" stroke-width="1" opacity="1" d="M 35.5 67 L 67 67.5 L 35.5 68 L 34.5 69 L 35.5 67 Z " /><path fill="rgb(188,219,188)" stroke="rgb(188,219,188)" stroke-width="1" opacity="1" d="M 13.5 70 L 14 73.5 L 13 73.5 L 13.5 70 Z " /><path fill="rgb(188,219,188)" stroke="rgb(188,219,188)" stroke-width="1" opacity="1" d="M 36.5 78 L 36 79.5 L 35.5 84 L 35 79.5 L 36.5 78 Z " /><path fill="rgb(188,219,188)" stroke="rgb(188,219,188)" stroke-width="1" opacity="1" d="M 64.5 78 L 64 79.5 L 63.5 81 L 63 79.5 L 64.5 78 Z " /><path fill="rgb(188,219,188)" stroke="rgb(188,219,188)" stroke-width="1" opacity="1" d="M 41.5 79 L 40.5 81 L 41.5 79 Z " /><path fill="rgb(188,219,188)" stroke="rgb(188,219,188)" stroke-width="1" opacity="1" d="M 44.5 79 L 45.5 81 L 44.5 79 Z " /><path fill="rgb(188,219,188)" stroke="rgb(188,219,188)" stroke-width="1" opacity="1" d="M 69.5 79 L 68.5 81 L 69.5 79 Z " /><path fill="rgb(188,219,188)" stroke="rgb(188,219,188)" stroke-width="1" opacity="1" d="M 50.5 80 L 51 83.5 L 50 83.5 L 50.5 80 Z " /><path fill="rgb(188,219,188)" stroke="rgb(188,219,188)" stroke-width="1" opacity="1" d="M 73.5 80 L 74 83.5 L 72 84.5 L 73.5 80 Z " /><path fill="rgb(188,219,188)" stroke="rgb(188,219,188)" stroke-width="1" opacity="1" d="M 45.5 82 L 46 83.5 L 44 84.5 L 45.5 82 Z " /><path fill="rgb(188,219,188)" stroke="rgb(188,219,188)" stroke-width="1" opacity="1" d="M 63.5 82 L 64 84.5 L 63 84.5 L 63.5 82 Z " /><path fill="rgb(188,219,188)" stroke="rgb(188,219,188)" stroke-width="1" opacity="1" d="M 40.5 83 L 41.5 85 L 40.5 83 Z " /><path fill="rgb(188,219,188)" stroke="rgb(188,219,188)" stroke-width="1" opacity="1" d="M 68.5 83 L 69.5 85 L 68.5 83 Z " /><path fill="rgb(188,219,188)" stroke="rgb(188,219,188)" stroke-width="1" opacity="1" d="M 103.5 84 L 102.5 86 L 103.5 84 Z " /><path fill="rgb(188,219,188)" stroke="rgb(188,219,188)" stroke-width="1" opacity="1" d="M 64.5 86 L 65.5 88 L 64.5 86 Z " /><path fill="rgb(188,219,188)" stroke="rgb(188,219,188)" stroke-width="1" opacity="1" d="M 41.5 89 L 45 89.5 L 41.5 90 L 41.5 89 Z " /><path fill="rgb(188,219,188)" stroke="rgb(188,219,188)" stroke-width="1" opacity="1" d="M 22.5 105 L 23.5 107 L 22.5 105 Z " /><path fill="rgb(188,219,188)" stroke="rgb(188,219,188)" stroke-width="1" opacity="1" d="M 43.5 111 L 46 111.5 L 43.5 112 L 43.5 111 Z " /></svg>